<svg xmlns="http://www.w3.org/2000/svg" width="1000" height="301" fill="#ffffff" viewBox="0 0 1000 301.4"  version="1"><style>.a{fill-rule:evenodd;fill:#f90;}.b{fill-rule:evenodd;}</style><path d="m620.4 235.7c-58.1 42.8-142.3 65.7-214.9 65.7-101.7 0-193.2-37.6-262.5-100.2-5.4-4.9-0.6-11.6 6-7.8 74.7 43.5 167.2 69.6 262.6 69.6 64.4 0 135.2-13.3 200.3-41 9.8-4.2 18.1 6.4 8.4 13.6" class="a"/><path d="m644.5 208c-7.4-9.5-49.1-4.5-67.8-2.3-5.7 0.7-6.6-4.3-1.4-7.8 33.2-23.4 87.7-16.6 94.1-8.8 6.4 7.9-1.7 62.5-32.9 88.6-4.8 4-9.4 1.9-7.2-3.4 7-17.5 22.7-56.7 15.3-66.3" class="a"/><path d="m578 32.9 0-22.7c0-3.4 2.6-5.7 5.7-5.7l101.7 0c3.3 0 5.9 2.4 5.9 5.7l0 19.5c0 3.3-2.8 7.5-7.7 14.3l-52.7 75.3c19.6-0.5 40.3 2.4 58 12.4 4 2.3 5.1 5.6 5.4 8.8l0 24.2c0 3.3-3.7 7.2-7.5 5.2-31.3-16.4-72.9-18.2-107.5 0.2-3.5 1.9-7.2-1.9-7.2-5.2l0-23c0-3.7 0-10 3.7-15.6l61.1-87.6-53.1 0c-3.3 0-5.9-2.3-5.9-5.7" class="b"/><path d="m206.9 174.7-30.9 0c-3-0.2-5.3-2.4-5.5-5.3l0-158.8c0-3.2 2.7-5.7 6-5.7l28.9 0c3 0.1 5.4 2.4 5.6 5.3l0 20.8 0.6 0C219 10.9 233.1 1.5 252.2 1.5c19.4 0 31.5 9.4 40.2 29.4 7.5-20.1 24.5-29.4 42.7-29.4 13 0 27.2 5.4 35.8 17.4 9.8 13.4 7.8 32.8 7.8 49.8l0 100.2c0 3.2-2.7 5.7-6 5.7l-30.9 0c-3.1-0.2-5.6-2.7-5.6-5.7l0-84.2c0-6.7 0.6-23.4-0.9-29.8-2.3-10.7-9.2-13.7-18.2-13.7-7.5 0-15.3 5-18.5 13-3.2 8-2.9 21.4-2.9 30.4l0 84.2c0 3.2-2.7 5.7-6 5.7l-30.9 0c-3.1-0.2-5.6-2.7-5.6-5.7l0-84.2c0-17.7 2.9-43.8-19.1-43.8-22.2 0-21.4 25.4-21.4 43.8l0 84.2c0 3.2-2.7 5.7-6 5.7" class="b"/><path d="m779 1.5c45.9 0 70.8 39.4 70.8 89.6 0 48.4-27.5 86.9-70.8 86.9-45.1 0-69.6-39.4-69.6-88.6 0-49.4 24.9-87.9 69.6-87.9m0.3 32.4c-22.8 0-24.2 31.1-24.2 50.5 0 19.4-0.3 60.9 24 60.9 24 0 25.1-33.4 25.1-53.8 0-13.4-0.6-29.4-4.6-42.1-3.5-11.1-10.4-15.4-20.2-15.4" class="b"/><path d="m909.3 174.7-30.8 0c-3.1-0.2-5.6-2.7-5.6-5.7l0-158.9c0.3-2.9 2.8-5.2 6-5.2l28.7 0c2.7 0.1 4.9 2 5.5 4.4l0 24.3 0.6 0C922.3 11.9 934.4 1.5 955.8 1.5c13.9 0 27.4 5 36.1 18.7C1000 33 1000 54.3 1000 69.7l0 100c-0.3 2.8-2.9 5-6 5l-31 0c-2.8-0.2-5.2-2.3-5.5-5l0-86.3c0-17.4 2-42.8-19.4-42.8-7.5 0-14.5 5-17.9 12.7-4.4 9.7-4.9 19.4-4.9 30.1l0 85.5c0 3.2-2.7 5.7-6.1 5.7" class="b"/><path d="m496.9 98.8c0 12.1 0.3 22.1-5.8 32.8-4.9 8.7-12.8 14.1-21.4 14.1-11.9 0-18.8-9.1-18.8-22.4 0-26.4 23.6-31.2 46.1-31.2l0 6.7m31.2 75.4c-2 1.8-5 2-7.3 0.7-10.3-8.5-12.1-12.5-17.8-20.6-17 17.3-29 22.5-51 22.5-26.1 0-46.3-16.1-46.3-48.2 0-25.1 13.6-42.2 33-50.6 16.8-7.4 40.3-8.7 58.2-10.8l0-4c0-7.4 0.6-16.1-3.8-22.4-3.7-5.7-11-8.1-17.4-8.1-11.8 0-22.3 6.1-24.9 18.6-0.5 2.8-2.6 5.5-5.4 5.7L415.5 53.8C413 53.3 410.2 51.2 410.9 47.4 417.8 11 450.7 0 480.1 0c15.1 0 34.7 4 46.6 15.4 15.1 14.1 13.6 32.8 13.6 53.2l0 48.2c0 14.5 6 20.9 11.7 28.7 2 2.8 2.4 6.1-0.1 8.2-6.3 5.3-17.5 15.1-23.7 20.5l0-0.1" class="b"/><path d="m91.2 98.8c0 12.1 0.3 22.1-5.8 32.8-4.9 8.7-12.7 14.1-21.4 14.1-11.9 0-18.8-9.1-18.8-22.4 0-26.4 23.6-31.2 46-31.2l0 6.7m31.2 75.4c-2 1.8-5 2-7.3 0.7-10.3-8.5-12.1-12.5-17.8-20.6C80.4 171.7 68.3 176.9 46.3 176.9 20.3 176.9 0 160.8 0 128.6 0 103.5 13.6 86.4 33 78 49.8 70.6 73.3 69.3 91.2 67.3l0-4c0-7.4 0.6-16.1-3.7-22.4-3.8-5.7-11-8.1-17.4-8.1-11.8 0-22.3 6.1-24.9 18.6-0.5 2.8-2.6 5.5-5.4 5.7L9.8 53.8C7.3 53.3 4.5 51.2 5.2 47.4 12.1 11 45 0 74.4 0c15.1 0 34.7 4 46.6 15.4 15.1 14.1 13.6 32.8 13.6 53.2l0 48.2c0 14.5 6 20.9 11.7 28.7 2 2.8 2.4 6.1-0.1 8.2-6.3 5.3-17.5 15.1-23.7 20.5l-0.1-0.1" fill="#ffffff" class="b"/></svg>
