<!DOCTYPE svg PUBLIC "-//W3C//DTD SVG 20010904//EN" "http://www.w3.org/TR/2001/REC-SVG-20010904/DTD/svg10.dtd">
<svg version="1.0" xmlns="http://www.w3.org/2000/svg" width="1600px" height="484px" viewBox="0 0 16000 4840" preserveAspectRatio="xMidYMid meet">
<g id="layer101" fill="#ffffff" stroke="none">
 <path d="M135 4824 c-22 -8 -55 -29 -73 -47 -64 -62 -63 -29 -60 -1103 3 -1072 -2 -993 67 -1061 55 -55 81 -58 586 -58 519 0 598 7 755 71 258 104 453 341 534 649 37 142 46 217 46 410 0 203 -11 301 -51 449 -27 103 -122 316 -140 316 -4 0 -10 9 -14 20 -11 33 -157 175 -231 223 -92 61 -235 114 -354 132 -137 21 -1006 20 -1065 -1z m948 -357 c100 -24 165 -57 228 -119 149 -143 219 -355 219 -662 0 -246 -48 -444 -137 -558 -35 -45 -118 -120 -153 -137 -121 -62 -252 -81 -556 -81 l-234 0 0 791 0 791 283 -5 c210 -3 299 -8 350 -20z"/>
 <path d="M2987 4825 c-259 -53 -460 -192 -610 -420 -25 -39 -55 -93 -66 -120 -12 -28 -26 -58 -32 -68 -27 -48 -69 -218 -90 -367 -13 -89 -6 -324 12 -395 44 -182 65 -248 105 -328 128 -259 350 -461 584 -531 154 -46 373 -58 555 -31 130 20 192 38 293 85 192 91 339 244 437 455 55 118 60 131 90 254 65 260 54 517 -33 806 -30 97 -122 249 -216 359 -50 57 -185 173 -215 184 -9 3 -19 9 -22 14 -7 11 -168 76 -234 96 -72 21 -466 26 -558 7z m430 -376 c115 -35 218 -118 296 -239 39 -60 89 -199 108 -300 16 -83 16 -395 0 -477 -25 -130 -108 -283 -202 -373 -105 -101 -180 -131 -341 -137 -129 -6 -167 2 -283 58 -229 110 -362 443 -334 838 18 246 104 437 248 552 128 102 328 133 508 78z"/>
 <path d="M5321 4828 c-95 -13 -255 -72 -344 -125 -317 -192 -508 -619 -483 -1083 4 -69 11 -145 16 -170 14 -76 48 -203 65 -245 21 -53 96 -199 105 -205 4 -3 19 -23 33 -45 80 -124 264 -264 435 -330 141 -54 234 -70 417 -69 180 1 308 22 408 68 32 14 61 26 65 26 4 0 50 27 102 61 112 72 215 175 271 272 58 101 72 152 68 246 -4 71 -7 83 -35 118 -17 21 -46 46 -65 55 -41 22 -136 24 -182 5 -37 -16 -94 -82 -127 -147 -60 -119 -177 -248 -262 -287 -91 -43 -137 -53 -244 -53 -164 0 -286 49 -391 156 -93 96 -157 227 -194 399 -18 80 -18 400 0 480 19 92 68 224 102 277 61 95 159 175 253 208 186 64 406 40 539 -59 96 -70 157 -156 211 -296 39 -101 73 -146 126 -167 76 -29 139 -18 214 35 169 120 -10 576 -290 739 -22 12 -42 26 -45 30 -12 18 -204 88 -280 103 -91 17 -378 19 -488 3z"/>
 <path d="M7417 4824 c-181 -28 -361 -108 -457 -203 -119 -118 -191 -287 -220 -513 -14 -115 -13 -1340 1 -1392 37 -132 163 -195 303 -151 63 20 117 73 138 137 8 23 14 251 18 728 7 750 6 733 62 845 35 69 111 137 180 163 146 54 392 47 512 -15 77 -40 148 -141 187 -268 9 -29 14 -224 18 -735 l6 -695 30 -58 c21 -43 40 -65 72 -83 94 -56 232 -38 298 38 65 77 65 73 65 759 0 362 -4 660 -11 720 -13 130 -75 359 -98 359 -3 0 -12 13 -19 28 -19 45 -118 148 -190 199 -82 59 -230 119 -340 138 -108 19 -432 19 -555 -1z"/>
 <path d="M8995 4826 c-42 -19 -90 -74 -106 -121 -12 -33 -14 -215 -14 -1010 0 -1057 -2 -1019 57 -1075 57 -55 110 -65 338 -65 195 0 207 1 253 24 78 38 92 73 233 606 18 71 40 150 48 175 9 25 29 97 45 160 17 63 49 183 72 265 22 83 48 176 56 208 9 32 18 56 20 53 3 -2 13 -35 23 -73 10 -37 37 -135 60 -218 58 -209 114 -414 160 -585 148 -543 153 -555 239 -593 38 -17 73 -21 207 -25 228 -6 323 13 383 77 52 55 51 44 51 1066 0 1046 2 1015 -61 1083 -41 45 -86 62 -164 62 -110 0 -170 -44 -200 -143 -13 -43 -15 -170 -16 -836 l-1 -786 -38 150 c-22 83 -60 229 -85 325 -25 96 -62 236 -81 310 -19 74 -52 203 -74 285 -21 83 -54 211 -74 286 -61 240 -83 293 -138 346 -50 48 -95 63 -190 63 -126 -1 -207 -48 -249 -147 -11 -27 -24 -57 -29 -68 -5 -11 -26 -83 -45 -160 -38 -150 -89 -343 -155 -597 -68 -261 -117 -454 -160 -622 -22 -88 -42 -162 -45 -164 -3 -3 -5 353 -5 790 0 690 -2 801 -15 839 -19 52 -58 96 -102 115 -41 18 -159 17 -198 0z"/>
 <path d="M11545 4826 c-46 -21 -92 -72 -109 -123 -14 -41 -16 -157 -16 -1000 0 -688 3 -967 12 -1000 14 -59 78 -127 133 -142 90 -25 181 -5 236 50 72 72 69 31 69 1080 0 684 -3 951 -12 989 -14 59 -66 126 -115 146 -41 18 -159 17 -198 0z"/>
 <path d="M12297 4826 c-50 -18 -82 -48 -108 -103 -18 -38 -21 -58 -17 -146 3 -96 6 -106 36 -153 17 -27 44 -63 59 -80 16 -18 71 -85 123 -149 52 -64 113 -138 135 -164 22 -26 54 -65 72 -87 111 -136 304 -370 403 -488 19 -23 53 -64 75 -91 22 -27 80 -96 128 -154 48 -58 102 -124 120 -146 18 -21 49 -58 70 -81 20 -23 37 -44 37 -48 0 -3 -233 -6 -517 -6 -305 0 -545 -4 -583 -10 -111 -18 -160 -72 -160 -177 0 -69 8 -93 48 -136 53 -57 58 -57 853 -57 482 0 745 4 778 11 67 14 111 45 141 99 21 39 24 57 23 135 0 54 -7 107 -16 132 -9 23 -55 91 -103 150 -49 59 -106 131 -129 158 -22 28 -42 52 -45 55 -9 9 -96 114 -166 200 -38 47 -78 96 -90 110 -12 14 -61 72 -108 130 -115 140 -134 163 -203 245 -77 92 -78 93 -178 215 -164 200 -200 243 -219 261 -19 19 -7 19 547 19 557 0 568 0 612 21 54 25 81 57 96 111 20 77 -7 158 -68 205 l-36 28 -786 2 c-648 2 -793 0 -824 -11z"/>
 <path d="M14375 4828 c-39 -14 -80 -52 -100 -93 -13 -29 -15 -152 -15 -1035 l0 -1003 22 -44 c12 -25 36 -55 53 -66 29 -21 43 -22 370 -28 579 -11 1099 -10 1156 2 37 8 64 22 93 49 39 36 40 41 44 109 3 43 -1 83 -8 101 -19 46 -72 87 -130 99 -33 7 -237 11 -595 11 l-545 0 0 280 0 279 428 3 427 3 45 27 c52 32 66 51 80 112 23 104 -31 201 -125 225 -28 7 -186 11 -449 11 l-406 0 0 294 0 295 568 3 567 3 50 26 c72 37 95 75 95 161 0 75 -9 100 -48 137 -56 52 -37 51 -819 50 -479 0 -738 -4 -758 -11z"/>
 <path d="M9020 2157 c-19 -6 -55 -32 -81 -57 -38 -36 -49 -55 -58 -98 -15 -70 -15 -1570 -1 -1660 6 -35 20 -84 32 -109 34 -72 118 -156 196 -194 l67 -34 2710 0 c2964 0 2701 -5 2917 54 158 43 326 122 484 227 119 79 349 308 427 427 96 144 173 303 217 449 60 196 70 280 70 584 0 295 -3 309 -70 366 -88 76 -201 77 -288 2 -70 -60 -74 -75 -83 -374 -8 -263 -16 -334 -55 -455 -16 -51 -76 -187 -94 -215 -5 -8 -18 -31 -29 -50 -24 -45 -116 -161 -173 -220 -179 -185 -444 -316 -708 -350 -47 -6 -1040 -9 -2632 -10 l-2558 0 0 785 c0 761 -1 787 -20 824 -23 45 -86 98 -132 112 -42 11 -93 10 -138 -4z"/>
 <path d="M11009 2160 c-130 -39 -195 -197 -130 -320 27 -53 40 -64 109 -96 l53 -24 1394 0 c1370 0 1395 0 1448 20 92 35 141 106 140 205 0 33 -8 76 -16 96 -20 46 -89 106 -136 119 -43 12 -2823 12 -2862 0z"/>
 <path d="M10974 1281 c-152 -69 -162 -302 -16 -388 l47 -28 1413 -3 c1019 -2 1425 1 1455 9 27 7 58 28 88 58 38 38 49 56 59 104 21 105 -31 213 -122 251 -33 14 -197 16 -1460 16 -1363 0 -1425 -1 -1464 -19z"/>
 </g>

</svg>