<svg height="700pt" fill="#533feb" preserveAspectRatio="xMidYMid meet" viewBox="0 0 700 700" width="700pt" xmlns="http://www.w3.org/2000/svg">
    <path d="m3130 6975c-939-110-1760-556-2341-1270-436-537-698-1177-770-1880-15-155-15-507 0-655 110-1042 628-1932 1473-2532 713-505 1635-725 2509-598 899 131 1733 620 2275 1335 678 894 890 2033 577 3110-247 852-842 1607-1610 2044-401 228-818 369-1289 437-152 22-668 28-824 9zm800-544c591-91 1133-348 1565-744 395-361 675-803 836-1317 42-134 93-365 104-470l7-65-553 551c-528 525-557 553-614 574-68 25-138 23-202-6-26-11-321-300-905-883l-868-866-392 392c-432 431-436 434-552 435-118 2-89 27-903-785-408-408-744-739-746-737-16 18-87 280-116 425-48 240-65 599-41 846 59 585 284 1132 653 1589 116 143 356 376 502 485 446 336 944 532 1505 594 146 16 565 6 720-18z" transform="matrix(.1 0 0 -.1 0 700)" />
</svg>