<svg width="259" height="296" viewBox="0 0 259 296" xmlns="http://www.w3.org/2000/svg"><style>.a{fill:#F6D2A2;}.b{fill:#C6B198;}.c{fill:#37ABC8;}.d{fill:#077E91;}.e{fill:#FFF;}.f{fill:#000;}.g{fill:#EF9325;}.h{fill:#E5E5E5;}.i{fill:#D2E261;}.j{fill:#9B9B9B;}.k{fill:#960000;}.l{fill:#595959;}</style><title>  35600C78-FD43-44A0-A2D3-2D9D8078107C@3x</title><desc>  Created with sketchtool.</desc><g style="fill:none;stroke-width:1;stroke:none"><path d="M39.8 116.5C39.8 116.5 61 98.1 123.6 98.1 181 98.1 197.2 111.2 213.6 116.5L128 158.3 39.8 116.5Z" fill="#C9781F"/><path d="M30.9 171.9C31.3 179.9 39.2 176.2 42.9 173.7 46.3 171.3 47.3 173.3 47.6 168.6 47.8 165.5 48.1 162.5 48 159.4 42.8 158.9 37.1 160.2 32.9 163.2 30.7 164.8 26.6 169.9 30.9 171.9" class="a"/><path d="M30.9 171.9C32 171.5 33.3 171.2 34.1 170.1" class="b"/><path d="M49.3 76.9C18.7 68.3 41.5 29.4 66 45.4L49.3 76.9Z" class="c"/><path d="M185.2 42.5C209.4 25.5 231.3 63.8 203.1 73.4L185.2 42.5Z" class="c"/><path d="M190.4 270.1C196.6 273.9 207.8 285.4 198.6 290.9 189.7 299.1 184.7 282.1 177 279.7 180.3 275.2 184.6 271 190.4 270.1Z" class="a"/><path d="M198.6 290.9C197.2 288.2 196.7 285.1 194.5 282.9"/><path d="M80.6 283.1C73.3 284.2 69.3 290.7 63.3 294 57.6 297.4 55.4 292.9 54.9 292 54 291.6 54.1 292.4 52.7 291 47.5 282.7 58.2 276.7 63.8 272.5 71.6 271 76.4 277.7 80.6 283.1Z" class="a"/><path d="M54.9 292C55.2 288.8 57.7 286.7 58.9 284.1"/><path d="M50.6 66.1C46.6 64 43.6 61.1 46.1 56.4 48.4 52.1 52.6 52.6 56.6 54.7L50.6 66.1Z" class="d"/><path d="M196.8 62.1C200.8 59.9 203.8 57 201.3 52.4 199 48.1 194.8 48.5 190.7 50.7L196.8 62.1Z" class="d"/><path d="M224.5 170.9C224.2 178.9 216.2 175.2 212.6 172.7 209.1 170.3 208.1 172.3 207.8 167.6 207.6 164.5 207.3 161.5 207.5 158.4 212.6 157.9 218.3 159.1 222.5 162.2 224.7 163.8 228.8 168.9 224.5 170.9" class="a"/><path d="M224.5 170.9C223.4 170.5 222.2 170.1 221.4 169.1" class="b"/><g class="c"><path d="M124.6 26.3C155.3 26.3 184 30.7 198.9 60.1 212.4 93 207.6 128.5 209.6 163.3 211.4 193.2 215.3 227.7 201.4 255.4 186.8 284.5 150.3 291.9 120.3 290.8 96.6 290 68.1 282.3 54.8 260.7 39.2 235.4 46.6 197.9 47.7 169.7 49 136.4 38.7 103 49.6 70.4 61 36.6 91.6 28.9 124.6 26.3"/></g><path d="M130.1 67.4C135.5 99.3 187.8 90.9 180.3 58.7 173.6 29.8 128.2 37.8 130.1 67.4" class="e"/><path d="M67.6 72.5C74.8 100.3 119.3 93.2 117.6 65.3 115.6 32 60.8 38.4 67.6 72.5" class="e"/><path d="M140.2 104.6C140.2 108.8 141.2 113 140.3 117.8 139.3 119.8 137.2 120 135.4 120.8 132.9 120.4 130.8 118.8 129.9 116.5 129.2 111.5 130.1 106.6 130.3 101.5L140.2 104.6Z" class="e"/><ellipse cx="79.9" cy="68" rx="7.5" ry="8.1" class="f"/><ellipse cx="83.3" cy="69.8" rx="1.8" ry="2.1" class="e"/><ellipse cx="142.9" cy="66" rx="7.4" ry="8.1" class="f"/><ellipse cx="146.3" cy="67.8" rx="1.7" ry="2.1" class="e"/><path d="M118.7 105.2C115.4 113.2 120.5 129.1 129.4 117.3 128.8 112.3 129.7 107.4 129.8 102.4L118.7 105.2Z" class="e"/><g class="a"><path d="M118.2 89.9C112.1 90.5 107.1 97.7 110.2 103.5 114.5 111.1 123.9 102.8 129.7 103.6 136.4 103.7 142 110.7 147.4 104.8 153.4 98.3 144.8 92 138.1 89.1L118.2 89.9Z"/></g><path d="M39.8 116.5C39.8 116.5 41.7 137.5 41.6 146.5 41.5 155.5 50.1 149.8 50.6 164 51 178.2 45.3 175.6 42.3 182.5 39.3 189.5 37.3 222 37.3 222 37.3 222 40.4 228.1 50 233.6 59.6 239 75.1 242.1 88.5 241.5 101.9 240.9 111.4 238 113.8 236.5 116.2 234.9 120.2 229.9 121.7 226 123.2 222.1 126.3 190.2 126.1 171.9 125.9 153.6 122.8 136.8 122.8 136.8L39.8 116.5Z" class="g"/><path d="M124.7 205.5C85.2 209.9 39.4 197.7 39.4 197.7 39.4 197.7 40.1 185.4 43.1 181.1 84.1 193.8 125.5 189.7 125.5 189.7 126.1 195.5 125.7 200.1 124.7 205.5Z" class="h"/><path d="M119.7 229.8C80.2 234.2 37.3 221.6 37.3 221.6 37.3 221.6 37.2 209.7 38.7 204.5 79.8 217.2 123.6 214 123.6 214 123.2 220.3 122.3 226.4 119.7 229.8Z" class="h"/><path d="M213.6 116.5C213.6 116.5 213.3 137.5 213.4 146.5 213.6 155.5 208.2 149.8 207.7 164 207.3 178.2 213 175.6 216.1 182.5 219.1 189.5 221.2 222 221.2 222 221.2 222 218.1 228.1 208.3 233.6 198.6 239 182.9 242.1 169.3 241.5 155.8 240.9 146.1 238 143.7 236.5 141.2 234.9 137.2 229.9 135.7 226 134.2 222.1 131 190.2 131.3 171.9 131.5 153.6 134.5 136.8 134.5 136.8L213.6 116.5Z" class="g"/><path d="M132.7 205.5C172.7 209.9 219 197.7 219 197.7 219 197.7 218.3 185.4 215.3 181.1 173.8 193.8 131.9 189.7 131.9 189.7 131.3 195.5 131.7 200.1 132.7 205.5Z" class="h"/><path d="M137.7 229.8C177.7 234.2 221.2 221.6 221.2 221.6 221.2 221.6 221.3 209.7 219.7 204.5 178.2 217.2 133.8 214 133.8 214 134.2 220.3 135.1 226.4 137.7 229.8Z" class="h"/><path d="M229.5 155C228.2 157.3 225.8 158.4 224 157.5L222.6 156.7C220.8 155.8 220.3 153.1 221.6 150.8L249.5 98.1C250.8 95.7 253.2 94.6 255 95.6L256.4 96.3C258.2 97.3 258.7 99.9 257.4 102.3L229.5 155Z" class="i"/><path d="M216.3 179.8C215.6 181.2 213.5 181.5 211.7 180.6L210.3 179.8C208.5 178.9 207.6 177 208.4 175.7L221.5 150.9C222.2 149.6 224.2 149.2 226 150.2L227.5 150.9C229.3 151.9 230.1 153.8 229.4 155.1L216.3 179.8Z" class="f"/><path d="M227.9 150L226.5 149.3C224.7 148.3 222.9 148.3 222.4 149.2L221.6 150.7C222.1 149.9 223.9 149.9 225.7 150.9L227.1 151.6C228.9 152.6 230 154.1 229.5 154.9L230.3 153.4C230.8 152.5 229.7 151 227.9 150Z" class="j"/><ellipse transform="translate(-271 -208)translate(-6 60)translate(277 148)translate(216.136985 164.33627)rotate(20.413879)" rx="6.2" ry="4.8" class="a"/><path d="M26.9 155.8C28.1 158.2 30.5 159.4 32.3 158.6L33.8 157.9C35.6 157 36.2 154.4 35 152L9.5 98.1C8.4 95.7 6 94.4 4.2 95.3L2.7 96C0.9 96.9 0.3 99.5 1.4 101.9L26.9 155.8Z" class="i"/><path d="M39 181.3C39.6 182.7 41.7 183.1 43.5 182.2L45 181.5C46.8 180.7 47.7 178.8 47.1 177.5L35.1 152.2C34.5 150.8 32.4 150.3 30.6 151.2L29.1 151.9C27.3 152.8 26.4 154.6 27 156L39 181.3Z" class="f"/><path d="M28.7 151L30.2 150.3C32 149.4 33.8 149.4 34.3 150.3L35 152C34.6 151.1 32.8 151 30.9 151.9L29.5 152.6C27.6 153.4 26.5 154.9 26.9 155.8L26.2 154.2C25.7 153.3 26.9 151.8 28.7 151Z" class="j"/><ellipse transform="translate(-271 -208)translate(-6 60)translate(277 148)translate(41.089114 165.024431)rotate(159.586121)" rx="6.2" ry="4.8" class="a"/><path d="M52.9 88.8C51.7 91 48.8 91.8 46.5 90.5L43.8 89C41.5 87.8 40.6 84.9 41.8 82.7L69.6 32.2C70.8 30 73.7 29.3 76 30.6L78.7 32C81 33.3 81.6 35.7 80.7 38.3 71 66.4 52.9 88.8 52.9 88.8Z" class="k"/><path d="M60.3 60C68.7 44.6 74.3 31.4 72.9 29.9L73 29.9C72.9 29.8 72.9 29.8 72.9 29.8 72.9 29.8 72.9 29.8 72.9 29.8L72.9 29.8C59.9 22.8 42.4 29.7 33.7 45.4 25.1 61.1 28.6 79.6 41.5 86.8L41.5 86.8C41.5 86.8 41.5 86.8 41.5 86.8 41.5 86.8 41.6 86.8 41.6 86.8L41.6 86.8C43.6 87.1 51.8 75.3 60.3 60Z" class="l"/><path d="M199.6 88.9C200.7 91.2 203.6 92 205.9 90.8L208.7 89.4C211 88.2 212 85.4 210.8 83.2L184.5 31.9C183.4 29.7 180.5 28.8 178.2 30L175.4 31.4C173.1 32.6 172.4 35 173.3 37.7 182.2 66 199.6 88.9 199.6 88.9Z" class="k"/><path d="M193.1 59.9C185.1 44.3 179.9 30.9 181.3 29.5L181.2 29.4C181.3 29.4 181.3 29.4 181.3 29.4 181.3 29.4 181.4 29.4 181.4 29.4L181.4 29.4C194.5 22.7 211.8 30.2 220 46.1 228.2 62 224.2 80.4 211.1 87.2L211.1 87.2C211.1 87.2 211.1 87.2 211 87.2 211 87.2 211 87.3 210.9 87.3L210.9 87.2C208.9 87.5 201.1 75.5 193.1 59.9Z" class="l"/><path d="M219.1 53.3C219.1 53.3 209.4 29 198.1 16.1 186.9 3.2 76.5-1.1 58.3 16.1 40.2 33.4 33.4 53.3 33.4 53.3L33.4 47.9C33.4 47.9 41.8 24.2 58.3 10.7 74.9-2.8 183.8-2.1 197.9 10.7 212 23.5 219.1 47.9 219.1 47.9L219.1 53.3Z" fill="#353535"/><ellipse transform="translate(-271 -208)translate(-6 60)translate(277 148)translate(26.516589 0.825753)translate(192.490339 46.095741)rotate(152.85071)" rx="3.8" ry="9.3" class="k"/><ellipse transform="translate(-271 -208)translate(-6 60)translate(277 148)translate(26.516589 0.825753)translate(8.209378 45.461228)rotate(28.80251)" rx="3.8" ry="9.3" class="k"/><g class="e"><path d="M177.6 48.2L157.2 48.2 141 48.2 116.2 48.2 102.2 48.2 74.6 48.2C56.1 48.2 56.2 97.2 73.5 100.1L109.4 97.8C113.8 97.8 122.4 81 124 79.7 125.7 78.3 131 78.2 133.1 79.7 135.2 81.1 140 96.1 144.4 96.1L180.3 100.1C197 92.4 192.8 48.2 177.6 48.2Z" opacity="0.6"/><path d="M101.9 58.3C90.6 58.1 72.8 58.2 63.1 58.3 61.5 63.6 59.7 70.3 60.6 76.9 69.4 76.9 88.5 76.9 102.2 76.9 110.4 76.9 117.2 78.4 123.6 80.1 123.8 79.9 123.9 79.8 124 79.7 125.7 78.4 131 78.2 133.1 79.7 133.7 80.1 134.4 81.4 135.3 83 138.5 83.7 141.8 84.2 145.2 84.3 154.5 84.4 176.2 84.3 190.2 84.3 192 78.3 190.7 72 190.3 66 176.6 66 154.9 65.7 144.5 65.7 129.8 65.7 117 58.7 101.9 58.3Z" opacity="0.5"/></g><path d="M117.4 89.6C117 79 137.2 77.7 139.5 86.6 141.9 95.4 118.4 97.5 117.4 89.6 116.6 83.4 117.4 89.6 117.4 89.6Z" class="f"/></g></svg>