<?xml version="1.0" encoding="UTF-8" standalone="no"?>
<svg
   xmlns:dc="http://purl.org/dc/elements/1.1/"
   xmlns:cc="http://creativecommons.org/ns#"
   xmlns:rdf="http://www.w3.org/1999/02/22-rdf-syntax-ns#"
   xmlns:svg="http://www.w3.org/2000/svg"
   xmlns="http://www.w3.org/2000/svg"
   version="1.1"
   id="svg2"
   viewBox="0 0 1200 569"
   height="3.95159in"
   width="8.33376in">
  <metadata
     id="metadata9">
    <rdf:RDF>
      <cc:Work
         rdf:about="">
        <dc:format>image/svg+xml</dc:format>
        <dc:type
           rdf:resource="http://purl.org/dc/dcmitype/StillImage" />
        <dc:title></dc:title>
      </cc:Work>
    </rdf:RDF>
  </metadata>
  <defs
     id="defs7" />
  <path
     style="stroke:none;fill:#ffffff;fill-opacity:1"
     d="M 576.41,399.00            C 598.98,399.00 617.68,392.60 632.50,379.80              647.32,367.00 654.73,350.26 654.73,329.59              654.73,312.97 649.85,299.46 640.09,289.08              630.33,278.68 617.32,272.53 601.05,270.62              601.05,270.62 601.05,269.95 601.05,269.95              614.05,265.67 624.24,258.46 631.64,248.31              639.04,238.17 642.73,226.22 642.73,212.47              642.73,196.01 636.61,182.65 624.38,172.39              612.14,162.13 595.59,157.00 574.70,157.00              574.70,157.00 506.00,157.00 506.00,157.00              506.00,157.00 506.00,399.00 506.00,399.00              506.00,399.00 576.41,399.00 576.41,399.00 Z            M 566.81,182.69            C 597.60,182.69 613.00,194.47 613.00,218.03              613.00,231.68 608.58,242.25 599.73,249.75              590.89,257.25 578.74,261.00 563.28,261.00              563.28,261.00 534.39,261.00 534.39,261.00              534.39,261.00 534.39,182.69 534.39,182.69              534.39,182.69 566.81,182.69 566.81,182.69 Z            M 566.83,286.52            C 605.61,286.52 625.00,300.76 625.00,329.23              625.00,342.92 620.43,353.70 611.30,361.55              602.16,369.39 589.30,373.31 572.72,373.31              572.72,373.31 534.39,373.31 534.39,373.31              534.39,373.31 534.39,286.52 534.39,286.52              534.39,286.52 566.83,286.52 566.83,286.52 Z            M 726.83,176.77            C 730.38,173.27 732.16,169.04 732.16,164.08              732.16,158.90 730.38,154.59 726.83,151.16              723.29,147.72 718.98,146.00 713.91,146.00              708.95,146.00 704.72,147.72 701.23,151.16              697.74,154.59 696.00,158.90 696.00,164.08              696.00,169.27 697.74,173.55 701.23,176.94              704.72,180.31 708.95,182.00 713.91,182.00              718.98,182.00 723.29,180.26 726.83,176.77 Z            M 727.70,226.00            C 727.70,226.00 700.00,226.00 700.00,226.00              700.00,226.00 700.00,399.00 700.00,399.00              700.00,399.00 727.70,399.00 727.70,399.00              727.70,399.00 727.70,226.00 727.70,226.00 Z            M 927.70,293.27            C 927.70,270.20 922.69,252.55 912.66,240.33              902.62,228.11 888.14,222.00 869.20,222.00              844.40,222.00 825.46,232.92 812.38,254.77              812.38,254.77 811.70,254.77 811.70,254.77              811.70,254.77 811.70,226.00 811.70,226.00              811.70,226.00 784.00,226.00 784.00,226.00              784.00,226.00 784.00,399.00 784.00,399.00              784.00,399.00 811.70,399.00 811.70,399.00              811.70,399.00 811.70,300.38 811.70,300.38              811.70,284.50 816.24,271.36 825.31,260.94              834.39,250.52 845.87,245.31 859.73,245.31              886.58,245.31 900.00,263.67 900.00,300.38              900.00,300.38 900.00,399.00 900.00,399.00              900.00,399.00 927.70,399.00 927.70,399.00              927.70,399.00 927.70,293.27 927.70,293.27 Z            M 1127.70,226.00            C 1127.70,226.00 1100.00,226.00 1100.00,226.00              1100.00,226.00 1100.00,250.03 1100.00,250.03              1100.00,250.03 1099.33,250.03 1099.33,250.03              1088.05,231.34 1070.73,222.00 1047.38,222.00              1022.78,222.00 1003.40,230.67 989.23,248.00              975.08,265.34 968.00,288.70 968.00,318.08              968.00,343.96 974.57,364.59 987.72,379.95              1000.86,395.32 1018.21,403.00 1039.75,403.00              1066.26,403.00 1086.12,391.96 1099.33,369.89              1099.33,369.89 1100.00,369.89 1100.00,369.89              1100.00,369.89 1100.00,388.73 1100.00,388.73              1100.00,433.80 1078.64,456.34 1035.94,456.34              1018.20,456.34 999.55,450.89 980.00,440.00              980.00,440.00 980.00,467.80 980.00,467.80              996.03,475.93 1014.77,480.00 1036.23,480.00              1097.21,480.00 1127.70,448.29 1127.70,384.88              1127.70,384.88 1127.70,226.00 1127.70,226.00 Z            M 1085.36,363.14            C 1075.60,374.17 1062.93,379.69 1047.34,379.69              1032.00,379.69 1019.67,373.92 1010.36,362.39              1001.05,350.85 996.39,335.46 996.39,316.22              996.39,293.82 1001.24,276.41 1010.95,263.97              1020.66,251.53 1034.09,245.31 1051.25,245.31              1065.12,245.31 1076.72,250.21 1086.03,260.00              1095.34,269.79 1100.00,281.55 1100.00,295.28              1100.00,295.28 1100.00,320.77 1100.00,320.77              1100.00,337.98 1095.12,352.11 1085.36,363.14 Z            M 64.00,68.00            C 64.00,68.00 64.00,426.00 64.00,426.00              64.00,426.00 140.00,482.00 140.00,482.00              140.00,482.00 372.00,360.00 372.00,360.00              372.00,360.00 372.00,270.00 372.00,270.00              372.00,270.00 186.00,213.00 186.00,213.00              186.00,213.00 220.00,294.00 220.00,294.00              220.00,294.00 273.00,320.00 273.00,320.00              273.00,320.00 150.00,387.00 150.00,387.00              150.00,387.00 150.00,92.00 150.00,92.00              150.00,92.00 64.00,68.00 64.00,68.00 Z"
     stroke-width="1"
     stroke="black"
     fill="none"
     id="Bing" />
</svg>
