<svg xmlns="http://www.w3.org/2000/svg" viewBox="0 0 3050 700">
  <g fill="#333">
    <path d="M577 678c-48-13-93-58-107-106-13-49-13-176 1-227 12-46 41-80 84-102 41-22 179-22 220 0 76 39 99 98 93 236-4 113-22 153-81 184-45 23-153 31-210 15zm157-91c46-47 47-217 1-263-34-34-106-34-140 0-46 46-45 216 1 263 17 17 34 23 69 23s52-6 69-23zM1023 681c-77-20-110-60-124-155-12-75 2-196 27-233 35-54 116-78 213-65l59 8-6-82c-5-92-1-99 68-106l35-3 3 270c1 149 0 285-3 303-5 26-14 37-42 48-41 18-184 27-230 15zm165-220c2-109-1-146-10-153-7-4-36-8-65-8-40 0-58 5-80 24-25 21-28 31-31 100-5 94 2 136 29 165 18 19 29 22 87 19l67-3 3-144zM1458 675c-83-27-118-91-118-220 0-164 53-226 194-228 138-2 190 39 208 162 6 39 7 82 4 96l-6 25h-150c-88 0-150 4-150 10 0 24 26 63 51 76 32 16 128 19 179 4 38-11 50-2 50 38 0 30-34 42-135 48-55 3-95-1-127-11zm182-270c0-42-22-90-45-99-9-3-34-6-55-6-55 0-88 32-96 93l-7 47h203v-35zM1934 679c-73-21-110-101-80-173 8-20 22-39 31-42 12-5 11-11-10-36-33-39-34-103-3-143 34-44 75-55 198-55h110v460l-107-1c-60 0-122-5-139-10zm156-129v-50h-57c-82 0-117 37-76 82 12 13 31 18 75 18h58v-50zm0-185v-45h-58c-62 0-82 11-82 45s20 45 82 45h58v-45zM2200 460V230h115c129 0 173 12 201 55 25 38 24 107-2 142l-22 29 25 29c22 25 25 36 21 82-8 98-56 122-235 123h-103V460zm228 128c7-7 12-24 12-38 0-39-18-50-82-50h-58v100h58c32 0 63-5 70-12zm3-202c8-17 8-29 0-45-10-18-21-21-71-21h-60v90h60c54 0 62-3 71-24zM30 482c0-177 2-201 18-215 26-23 105-39 205-40 152-1 169 28 165 282l-3 166H315l-5-180-5-180-27-9c-17-6-49-6-85 0l-58 9-3 183-2 182H30V482z"/>
  </g>
  <g fill="#175eb4">
    <path d="M1934 679c-73-21-110-101-80-173 8-20 22-39 31-42 12-5 11-11-10-36-33-39-34-103-3-143 34-44 75-55 198-55h110v460l-107-1c-60 0-122-5-139-10zm156-129v-50h-57c-82 0-117 37-76 82 12 13 31 18 75 18h58v-50zm0-185v-45h-58c-62 0-82 11-82 45s20 45 82 45h58v-45zM2200 460V230h115c129 0 173 12 201 55 25 38 24 107-2 142l-22 29 25 29c22 25 25 36 21 82-8 98-56 122-235 123h-103V460zm228 128c7-7 12-24 12-38 0-39-18-50-82-50h-58v100h58c32 0 63-5 70-12zm3-202c8-17 8-29 0-45-10-18-21-21-71-21h-60v90h60c54 0 62-3 71-24z"/>
  </g>
</svg>
