<svg xmlns="http://www.w3.org/2000/svg" viewBox="0 0 174 34" width="174" height="34"><defs><linearGradient gradientTransform="matrix(28.934,0,0,12.2,16088.352,-572.1)" y2="47.4" x2="-547" y1="48.7" x1="-548.3" gradientUnits="userSpaceOnUse"><stop stop-color="#00A0EE" offset="0"/><stop stop-color="#386AFF" offset="1"/></linearGradient></defs><style>  .st0{fill:#00ADEE;} .st1{fill:url(#plus_1_);}</style><title>  ico-p1mdplogo</title><path d="m118.5 5.9c-6.1 0-11.1 4.9-11.1 11.1 0 6.1 5 11.1 11.1 11.1 6.1 0 11.1-5 11.1-11.1 0-6.1-5-11.1-11.1-11.1zM50 8.4C48.1 6.8 45.7 5.9 43 5.9c-6.1 0-11.1 5-11.1 11.1 0 6.1 5 11.1 11.1 11.1 2.7 0 5.1-0.9 7-2.5l0 1.8 4.1 0 0-20.8-4.1 0 0 1.8zm112.6 0c-1.9-1.6-4.3-2.5-7-2.5-6.1 0-11.1 5-11.1 11.1 0 6.1 4.9 11.1 11.1 11.1 2.7 0 5.1-0.9 7-2.5l0 1.8 4.1 0 0-20.8-4.1 0 0 1.8zM136.8 7.9c-2.4 1.5-4.4 4.2-4.4 9l0 10.5 4.4 0 0-10.5c0-6.9 7.1-6.5 7.1-6.5l0-4.4c0 0-3.8-0.1-7.1 1.9zM75 8.2C73.2 6.8 70.9 6 68.4 6c-2.5 0-4.8 0.8-6.6 2.2-2.7 2-4.4 5.2-4.4 8.8l0 10.4 4.4 0 0-10.4c0-3.7 3-6.6 6.6-6.6 3.7 0 6.6 3 6.6 6.6l0 10.3 4.5 0 0-10.3c0-3.6-1.8-6.8-4.5-8.8zm25.5-6.2 0 6.4c-1.9-1.6-4.3-2.5-7-2.5-6.1 0-11.1 5-11.1 11.1 0 6.1 5 11.1 11.1 11.1 2.7 0 5.1-0.9 7-2.5l0 1.8 4 0 0-27.4-2 0c-1.1 0-2 0.9-2 2zM18.3 5.9c-2.7 0-5.1 0.9-7 2.5l0-1.8-4 0 0 27.4 2 0c1.1 0 2-0.9 2-2l0-6.4c1.9 1.6 4.3 2.5 7 2.5 6.1 0 11.1-5 11.1-11.1 0-6.1-5-11.1-11.1-11.1zm100.2 17.7c-3.7 0-6.6-3-6.6-6.6 0-3.7 3-6.6 6.6-6.6 3.7 0 6.6 3 6.6 6.6 0.1 3.7-2.9 6.6-6.6 6.6zm-75.3 0.3c-3.8 0-6.9-3.1-6.9-6.9 0-3.8 3.1-6.9 6.9-6.9 3.8 0 6.9 3.1 6.9 6.9 0 3.8-3.1 6.9-6.9 6.9zm112.6 0c-3.8 0-6.9-3.1-6.9-6.9 0-3.8 3.1-6.9 6.9-6.9 3.8 0 6.9 3.1 6.9 6.9 0 3.8-3.1 6.9-6.9 6.9zm-62.1 0c-3.8 0-6.9-3.1-6.9-6.9 0-3.8 3.1-6.9 6.9-6.9 3.8 0 6.9 3.1 6.9 6.9 0 3.8-3.1 6.9-6.9 6.9zm-75.6 0c-3.8 0-6.9-3.1-6.9-6.9 0-3.8 3.1-6.9 6.9-6.9 3.8 0 6.9 3.1 6.9 6.9 0 3.8-3.1 6.9-6.9 6.9z" class="st0" fill="#00adee"/></svg>