<svg xmlns="http://www.w3.org/2000/svg" height="168" width="559" viewBox="0 0 559 168"><path d="m84 0.3c-46.2 0-83.7 37.5-83.7 83.7 0 46.3 37.5 83.7 83.7 83.7 46.3 0 83.7-37.5 83.7-83.7 0-46.2-37.5-83.7-83.7-83.7l0 0zm38.4 120.8c-1.5 2.5-4.7 3.2-7.2 1.7-19.7-12-44.4-14.7-73.6-8.1-2.8 0.6-5.6-1.1-6.2-3.9-0.6-2.8 1.1-5.6 3.9-6.2 31.9-7.3 59.3-4.1 81.3 9.3 2.5 1.5 3.2 4.7 1.7 7.2zm10.3-22.8c-1.9 3.1-5.9 4-9 2.2-22.5-13.8-56.8-17.8-83.4-9.8-3.5 1-7.1-0.9-8.1-4.3-1-3.5 0.9-7.1 4.4-8.1 30.4-9.2 68.2-4.8 94.1 11.1 3.1 1.9 4 5.9 2.2 9v0zm0.9-23.7c-27-16-71.5-17.5-97.3-9.7-4.1 1.3-8.5-1.1-9.8-5.2-1.3-4.1 1.1-8.5 5.2-9.8 29.6-9 78.8-7.2 109.8 11.2 3.7 2.2 5 7 2.7 10.7-2.2 3.7-7 4.9-10.7 2.7zm94.6 3.1c-14.5-3.4-17-5.9-17-11 0-4.8 4.5-8 11.3-8 6.5 0 13 2.5 19.8 7.5 0.2 0.2 0.5 0.2 0.7 0.2 0.3 0 0.5-0.2 0.6-0.4l7.1-10c0.3-0.4 0.2-1-0.2-1.3-8.1-6.5-17.1-9.6-27.8-9.6-15.6 0-26.5 9.4-26.5 22.8 0 14.4 9.4 19.5 25.7 23.4 13.8 3.2 16.2 5.9 16.2 10.6 0 5.3-4.7 8.6-12.3 8.6-8.4 0-15.3-2.8-23-9.5-0.2-0.2-0.4-0.2-0.7-0.2-0.3 0-0.5 0.1-0.6 0.3l-7.9 9.4c-0.3 0.4-0.3 1 0.1 1.3 9 8 20 12.2 31.9 12.2 16.8 0 27.7-9.2 27.7-23.4 0-12-7.2-18.7-24.8-22.9l0 0zm62.9-14.3c-7.3 0-13.3 2.9-18.2 8.8v-6.6c0-0.5-0.4-0.9-0.9-0.9h-12.9c-0.5 0-0.9 0.4-0.9 0.9v73.6c0 0.5 0.4 1 0.9 1h13c0.5 0 0.9-0.4 0.9-0.9v-23.2c4.9 5.5 10.9 8.2 18.2 8.2 13.6 0 27.3-10.4 27.3-30.4 0-19.9-13.7-30.4-27.3-30.4l0 0zm12.2 30.4c0 10.1-6.2 17.2-15.2 17.2-8.8 0-15.5-7.4-15.5-17.2 0-9.8 6.7-17.2 15.5-17.2 8.8 0 15.2 7.2 15.2 17.2v0zm50.2-30.4c-17.4 0-31.1 13.4-31.1 30.6 0 17 13.6 30.3 30.9 30.3 17.5 0 31.2-13.4 31.2-30.5 0-17-13.6-30.4-31-30.4v0zm0 47.7c-9.3 0-16.3-7.5-16.3-17.3 0-9.9 6.8-17.1 16.1-17.1 9.3 0 16.4 7.5 16.4 17.4 0 9.9-6.8 17.1-16.2 17.1zm68.3-46.5h-14.2v-14.6c0-0.5-0.4-0.9-0.9-0.9h-12.9c-0.5 0-0.9 0.4-0.9 0.9v14.6h-6.2c-0.5 0-0.9 0.4-0.9 0.9v11.1c0 0.5 0.4 0.9 0.9 0.9h6.2v28.8c0 11.6 5.8 17.5 17.2 17.5 4.6 0 8.5-1 12.1-3 0.3-0.2 0.5-0.5 0.5-0.8v-10.6c0-0.3-0.2-0.6-0.4-0.8-0.3-0.2-0.6-0.2-0.9 0-2.5 1.3-4.9 1.8-7.6 1.8-4.1 0-6-1.9-6-6.1v-26.8h14.3c0.5 0 0.9-0.4 0.9-0.9v-11.1c0-0.5-0.4-0.9-0.9-0.9l0 0zm49.6 0.1v-1.8c0-5.3 2-7.6 6.5-7.6 2.7 0 4.9 0.5 7.3 1.3 0.3 0.1 0.6 0 0.9-0.1 0.3-0.2 0.4-0.5 0.4-0.8v-10.9c0-0.4-0.3-0.8-0.7-0.9-2.6-0.8-5.8-1.5-10.8-1.5-11.9 0-18.3 6.7-18.3 19.5v2.7h-6.2c-0.5 0-0.9 0.4-0.9 0.9v11.2c0 0.5 0.4 0.9 1 0.9h6.2v44.4c0 0.5 0.4 1 1 1h12.9c0.5 0 1-0.4 1-0.9v-44.4h12.1l18.5 44.4c-2.1 4.7-4.2 5.6-7 5.6-2.3 0-4.7-0.7-7.1-2-0.2-0.1-0.5-0.1-0.7-0.1-0.2 0.1-0.5 0.3-0.6 0.5l-4.4 9.6c-0.2 0.5 0 1 0.4 1.2 4.6 2.5 8.7 3.5 13.8 3.5 9.6 0 14.9-4.5 19.5-16.4l22.5-58c0.1-0.3 0.1-0.6-0.1-0.9-0.2-0.3-0.5-0.4-0.8-0.4h-13.5c-0.4 0-0.8 0.3-0.9 0.6l-13.8 39.4-15.1-39.5c-0.1-0.4-0.5-0.6-0.9-0.6h-22.1v0zm-28.8-0.1h-12.9c-0.5 0-0.9 0.4-0.9 0.9v56.5c0 0.5 0.4 1 1 1h13c0.5 0 1-0.4 1-0.9v-56.5c0-0.5-0.4-0.9-0.9-0.9v0zm-6.4-25.7c-5.1 0-9.3 4.2-9.3 9.3 0 5.1 4.2 9.3 9.3 9.3s9.3-4.2 9.3-9.3c0-5.1-4.2-9.3-9.3-9.3zm113.4 43.9c-5.1 0-9.1-4.1-9.1-9.1s4-9.2 9.2-9.2 9.1 4.1 9.1 9.1c0 5-4 9.2-9.2 9.2zm0.1-17.4c-4.7 0-8.2 3.7-8.2 8.3 0 4.5 3.5 8.2 8.2 8.2 4.7 0 8.2-3.7 8.2-8.3 0-4.5-3.5-8.2-8.1-8.2zm2 9.1l2.6 3.6h-2.2l-2.3-3.3h-2v3.3h-1.8v-9.6h4.3c2.2 0 3.7 1.1 3.7 3.1 0 1.6-0.9 2.5-2.2 2.9h0zm-1.5-4.3h-2.4v3h2.4c1.2 0 1.9-0.6 1.9-1.5 0-1-0.7-1.5-1.9-1.5z" fill="#1ED760"/></svg>