<svg xmlns="http://www.w3.org/2000/svg" width="2560" height="1980"><path d="M1572.2 1627L1306.2 1000.5C1200.8 1207.3 1084 1422.2 984.1 1626.7 983.5 1627.7 935.8 1627.1 935.8 1626.5 783 1270.1 624.7 916.1 471.3 559.9 435.7 472.9 311.1 332.9 225.8 333.7 225.8 323.5 225.3 301 225.2 287.3L750.9 287.1 750.5 332.8C688.8 335.7 582.1 375.1 609.7 443.2 683.9 603.2 946.2 1223 1017.1 1380.4 1066.6 1283.6 1204.8 1025.4 1261.7 916.2 1217.1 824.7 1069.7 483 1025.5 396.9 992.2 340.8 908.6 334 844.1 333 844.2 318.6 844.9 307.6 844.6 287.9L1306.8 289.3 1306.8 331.3C1244.2 333 1185 356.3 1211.8 416.1 1274 545.2 1310.2 637 1367.4 756.4 1385.7 721.4 1479 529.8 1523.6 428.6 1550.5 361.4 1510.3 336.1 1397.7 333.1 1399.2 322 1398.2 299.8 1399.1 289.2 1542.9 288.7 1759.9 288.2 1798.3 287.6L1798.5 331.3C1725.2 334.1 1649.3 373.2 1609.6 433.9L1417.4 832.5C1438.5 885.3 1623.3 1295.8 1642.8 1341.3L2040.2 424.2C2011.9 349.9 1921.7 333.3 1886.4 332.5 1886.7 320.7 1886.7 302.6 1886.8 287.6L2301.7 290.8 2302.2 292.9 2301.5 332.3C2210.5 335 2154.2 383.7 2120.6 463.5 2037.9 650.2 1785.2 1241.7 1616.5 1627.1 1616.3 1627.4 1572.3 1627.1 1572.2 1627z" fill="black"/></svg>